<svg width="30" height="30" viewBox="0 0 30 30" fill="none" xmlns="http://www.w3.org/2000/svg">
<path d="M18.3863 10.3103H23.8345M18.3863 13.3621H23.8345M18.3863 19H19.8M22.3518 19H23.8345M4.45522 22.7241H25.1449C26.059 22.7241 26.8 21.9831 26.8 21.069V8.65517C26.8 7.74105 26.059 7 25.1449 7H4.45522C3.54109 7 2.80005 7.74105 2.80005 8.65517V21.069C2.80005 21.9831 3.54109 22.7241 4.45522 22.7241ZM8.33733 12.7248L6.44268 12.8832C5.82412 12.935 5.5733 13.7402 6.04458 14.1613L7.48811 15.4511C7.68678 15.6286 7.77355 15.9072 7.71285 16.1726L7.27183 18.1012C7.12785 18.7308 7.78449 19.2285 8.31407 18.8911L9.93616 17.8576C10.1594 17.7153 10.4402 17.7153 10.6635 17.8576L12.2855 18.8911C12.8151 19.2285 13.4718 18.7308 13.3278 18.1012L12.8868 16.1726C12.8261 15.9072 12.9128 15.6286 13.1115 15.4511L14.555 14.1613C15.0263 13.7402 14.7755 12.935 14.1569 12.8832L12.2623 12.7248C12.0015 12.703 11.7743 12.5308 11.6739 12.2789L10.9439 10.4482C10.7056 9.85059 9.89397 9.85059 9.65566 10.4482L8.92572 12.2789C8.82526 12.5308 8.5981 12.703 8.33733 12.7248Z" stroke="#534B74" stroke-width="1.5" stroke-linecap="round" stroke-linejoin="round"/>
</svg>
